# AST/ASF file generated using VICON BodyLanguage
# -----------------------------------------------
:version 1.10
:name VICON
:units
  mass 1.0
  length 0.45
  angle deg
:documentation
   .ast/.asf automatically generated from VICON data using
   VICON BodyBuilder and BodyLanguage model FoxedUp or BRILLIANT.MOD
:root
   order TX TY TZ RX RY RZ
   axis XYZ
   position 0 0 0  
   orientation 0 0 0 
:bonedata
  begin
     id 1 
     name lhipjoint
     direction 0.610259 -0.730986 0.305356 
     length 2.50941 
     axis 0 0 0  XYZ
  end
  begin
     id 2 
     name lfemur
     direction 0.34202 -0.939693 0  
     length 7.48822  
     axis 0 0 20  XYZ
    dof rx ry rz
    limits (-160.0 20.0)
           (-70.0 70.0)
           (-60.0 70.0)
  end
  begin
     id 3 
     name ltibia
     direction 0.34202 -0.939693 0   
     length 7.60141   
     axis 0 0 20   XYZ
    dof rx
    limits (-10.0 170.0)
  end
  begin
     id 4 
     name lfoot
     direction 0.0673488 -0.185039 0.980421   
     length 2.04049   
     axis -90 7.62852e-016 20   XYZ
    dof rx rz
    limits (-45.0 90.0)
           (-70.0 20.0)
  end
  begin
     id 5 
     name ltoes
     direction 1.5356e-011 -4.21729e-011 1   
     length 1.02897   
     axis -90 7.62852e-016 20   XYZ
    dof rx
    limits (-90.0 20.0)
  end
  begin
     id 6 
     name rhipjoint
     direction -0.57612 -0.754205 0.315056   
     length 2.43216  
     axis 0 0 0  XYZ 
  end
  begin
     id 7 
     name rfemur
     direction -0.34202 -0.939693 0   
     length 7.42799   
     axis 0 0 -20   XYZ
    dof rx ry rz
    limits (-160.0 20.0)
           (-70.0 70.0)
           (-70.0 60.0)
  end
  begin
     id 8 
     name rtibia
     direction -0.34202 -0.939693 0   
     length 7.69484   
     axis 0 0 -20   XYZ
    dof rx
    limits (-10.0 170.0)
 end
 begin
     id 9 
     name rfoot
     direction -0.111837 -0.30727 0.945028   
     length 2.15769  
     axis -90 -7.62852e-016 -20   XYZ
    dof rx rz
    limits (-45.0 90.0)
           (-20.0 70.0)
  end
  begin
     id 10 
     name rtoes
     direction -1.53539e-011 -4.21878e-011 1   
     length 1.07391   
     axis -90 -7.62852e-016 -20   XYZ
    dof rx
    limits (-90.0 20.0)
  end
  begin
     id 11 
     name lowerback
     direction 0.00552624 0.990109 -0.140195   
     length 2.12403   
     axis 0 0 0   XYZ
    dof rx ry rz
    limits (-20.0 45.0)
           (-30.0 30.0)
           (-30.0 30.0)
  end
  begin
     id 12 
     name upperback
     direction 0.00361898 0.999976 -0.00584723   
     length 2.13232   
     axis 0 0 0   XYZ
    dof rx ry rz
    limits (-20.0 45.0)
           (-30.0 30.0)
           (-30.0 30.0)
  end
  begin
     id 13 
     name thorax
     direction -0.000331275 0.998253 0.0590847   
     length 2.17688   
     axis 0 0 0   XYZ
    dof rx ry rz
    limits (-20.0 45.0)
           (-30.0 30.0)
           (-30.0 30.0)
  end
  begin
     id 14 
     name lowerneck
     direction -0.0561561 0.979832 0.19177   
     length 1.64159   
     axis 0 0 0   XYZ
    dof rx ry rz
    limits (-20.0 45.0)
           (-30.0 30.0)
           (-30.0 30.0)
  end
  begin
     id 15 
     name upperneck
     direction 0.0827153 0.979385 -0.184293   
     length 1.68939   
     axis 0 0 0   XYZ
    dof rx ry rz
    limits (-20.0 45.0)
           (-30.0 30.0)
           (-30.0 30.0)
  end
  begin
     id 16
     name head
     direction 0.0278583 0.995936 -0.0856488  
     length 1.70207  
     axis 0 0 0   XYZ
    dof rx ry rz
    limits (-20.0 45.0)
           (-30.0 30.0)
           (-30.0 30.0)
  end
  begin
     id 17 
     name lclavicle
     direction 0.950993 0.301131 -0.0702275  
     length 3.41652  
     axis 0 0 0   XYZ
    dof ry rz
    limits (-20.0 10.0)
           (0.0 20.0)
  end
  begin
     id 18 
     name lhumerus
     direction 1 -4.48981e-011 -3.9662e-029   
     length 5.32955   
     axis 180 -30 -90   XYZ
    dof rx ry rz
    limits (-60.0 90.0)
           (-90.0 90.0)
           (-90.0 90.0)
  end
  begin
     id 19
     name lradius
     direction 1 -4.48925e-011 -9.0549e-027   
     length 3.69232   
     axis 180 -30 -90   XYZ
    dof rx
    limits (-10.0 170.0)
  end
  begin
     id 20
     name lwrist
     direction 1 -4.49007e-011 -1.49005e-026   
     length 1.84616   
     axis 9.0955e-015 90 90   XYZ
    dof ry
    limits (-180.0 0.0)
 end
  begin
     id 21 
     name lhand
     direction 1 -4.49016e-011 -2.98023e-026   
     length 0.536598   
     axis 1.90115e-014 90 90   XYZ
    dof rx rz
    limits (-90.0 90.0)
           (-45.0 45.0)
  end
  begin
     id 22 
     name lfingers
     direction 1 -4.48924e-011 -5.9578e-026   
     length 0.432619   
     axis 3.80223e-014 90 90   XYZ
    dof rx
    limits (0.0 90.0)
  end
  begin
     id 23
     name lthumb
     direction 0.707107 -6.34947e-011 0.707107   
     length 0.621157   
     axis -90 45 -3.84942e-014   XYZ
    dof rx rz
    limits (-45.0 45.0)
           (-45.0 45.0)
  end
  begin
     id 24 
     name rclavicle
     direction -0.955495 0.276497 -0.102848   
     length 3.36357  
     axis 0 0 0   XYZ 
    dof ry rz
    limits (-10.0 20.0)
           (-20.0 0.0)
  end
  begin
     id 25 
     name rhumerus
     direction -1 -4.48961e-011 3.30983e-027  
     length 5.23431   
     axis 180 30 90   XYZ
    dof rx ry rz
    limits (-90.0 60.0)
           (-90.0 90.0)
           (-90.0 90.0)
  end
  begin
     id 26 
     name rradius
     direction -1 -4.48965e-011 -6.63263e-027   
     length 3.55301   
     axis 180 30 90   XYZ
    dof rx
    limits (-10.0 170.0)
  end
  begin
     id 27 
     name rwrist
     direction -1 -4.48942e-011 -1.48958e-026   
     length 1.77651   
     axis 9.0955e-015 -90 -90   XYZ
    dof ry
    limits (-180.0 0.0)
  end
  begin
     id 28
     name rhand
     direction -1 -4.48977e-011 -2.97966e-026   
     length 0.772522   
     axis 1.90115e-014 -90 -90   XYZ
    dof rx rz
    limits (-90.0 90.0)
           (-45.0 45.0)
  end
  begin
     id 29
     name rfingers
     direction -1 -4.49135e-011 -5.96389e-026   
     length 0.622827   
     axis 3.80223e-014 -90 -90   XYZ
    dof rx
    limits (0.0 90.0)
  end
  begin
     id 30
     name rthumb
     direction -0.707107 -6.34969e-011 0.707107   
     length 0.894259   
     axis -90 -45 3.84942e-014   XYZ
    dof rx rz
    limits (-45.0 45.0)
           (-45.0 45.0)
  end
:hierarchy
  begin
    root lhipjoint rhipjoint lowerback
    lhipjoint lfemur
    lfemur ltibia
    ltibia lfoot
    lfoot ltoes
    rhipjoint rfemur
    rfemur rtibia
    rtibia rfoot
    rfoot rtoes
    lowerback upperback
    upperback thorax
    thorax lowerneck lclavicle rclavicle
    lowerneck upperneck
    upperneck head
    lclavicle lhumerus
    lhumerus lradius
    lradius lwrist
    lwrist lhand lthumb
    lhand lfingers
    rclavicle rhumerus
    rhumerus rradius
    rradius rwrist
    rwrist rhand rthumb
    rhand rfingers
  end

#!OML:ASF F:\VICON\USERDATA\INSTALL\rory3\rory3.ASF
:FULLY-SPECIFIED
:DEGREES
35
root 11.2617 18.2006 -17.5073 -182.415 -10.3902 176.401
lowerback 11.4383 3.71004 -2.66303
upperback 2.84463 4.30613 -0.949309
thorax -3.54865 2.0355 -0.105006
lowerneck -15.7175 14.434 -4.47328
upperneck 43.7781 18.3351 4.83454
head 17.8543 6.02915 5.90669
rclavicle 4.02042e-014 -1.51076e-014
rhumerus -33.7245 -11.0945 -78.6479
rradius 39.2354
rwrist 2.82668
rhand -16.9884 8.37965
rfingers 7.12502
rthumb 9.24657 -21.3976
lclavicle 4.02042e-014 -1.51076e-014
lhumerus -31.1607 6.4212 79.8916
lradius 23.752
lwrist -10.7529
lhand -16.5558 30.8343
lfingers 7.12502
lthumb 9.66391 60.5926
rfemur -16.7907 -14.4501 14.1255
rtibia 55.8494
rfoot -9.21793 -8.30205
rtoes -3.32162
lfemur -1.39446 -6.31389 -27.5334
ltibia 23.6973
lfoot -2.35917 -15.9572
ltoes -4.83608
36
root 11.2674 18.2046 -17.4412 -182.439 -10.6857 176.429
lowerback 11.3932 3.76426 -2.65917
upperback 2.82592 4.37801 -1.01907
thorax -3.53916 2.07158 -0.18788
lowerneck -15.349 14.6521 -3.98303
upperneck 43.8602 18.4863 4.74122
head 17.8844 6.14891 5.79594
rclavicle 3.76076e-014 -9.93923e-017
rhumerus -33.777 -11.1659 -78.7131
rradius 39.6927
rwrist 3.08976
rhand -16.8576 8.31851
rfingers 7.12502
rthumb 9.37278 -21.4531
lclavicle 3.76076e-014 -9.93923e-017
lhumerus -31.4417 6.70663 79.2328
lradius 23.4227
lwrist -11.1514
lhand -16.3679 30.7991
lfingers 7.12502
lthumb 9.84522 60.5489
rfemur -15.7052 -14.4828 13.9653
rtibia 56.105
rfoot -9.18318 -7.75995
rtoes -5.05652
lfemur -1.71981 -6.35685 -27.4833
ltibia 23.8712
lfoot -2.17879 -16.207
ltoes -5.3608
37
root 11.2691 18.2037 -17.3767 -182.442 -10.8717 176.467
lowerback 11.1644 3.86767 -2.59426
upperback 2.93819 4.52649 -1.063
thorax -3.29089 2.14088 -0.271128
lowerneck -15.5847 14.7216 -4.02398
upperneck 43.557 18.8557 4.42609
head 17.7945 6.2954 5.73006
rclavicle -1.62506e-014 -4.91992e-015
rhumerus -33.5019 -11.058 -78.803
rradius 39.9109
rwrist 3.02602
rhand -17.0844 8.27869
rfingers 7.12502
rthumb 9.15388 -21.5026
lclavicle -1.62506e-014 -4.91992e-015
lhumerus -31.5127 6.95578 78.7409
lradius 23.0286
lwrist -11.4003
lhand -17.0848 30.3236
lfingers 7.12502
lthumb 9.15349 60.105
rfemur -14.5906 -14.3698 13.8226
rtibia 56.236
rfoot -9.38625 -7.2695
rtoes -5.22796
lfemur -2.02039 -6.37185 -27.4492
ltibia 23.9866
lfoot -2.02906 -16.3837
ltoes -5.10326
38
root 11.2724 18.2131 -17.3076 -182.331 -11.0021 176.518
lowerback 10.8786 4.01079 -2.54896
upperback 3.06209 4.72932 -1.08413
thorax -3.00328 2.23767 -0.321659
lowerneck -15.9244 14.7819 -4.1238
upperneck 43.4688 19.1115 4.38503
head 17.805 6.40139 5.801
rclavicle 8.26199e-015 8.44835e-016
rhumerus -33.0615 -10.9718 -78.8666
rradius 40.0187
rwrist 2.91497
rhand -17.7846 8.67168
rfingers 7.12502
rthumb 8.47817 -21.1381
lclavicle 8.26199e-015 8.44835e-016
lhumerus -31.4238 7.37958 78.2812
lradius 22.5643
lwrist -11.8357
lhand -17.7015 29.7448
lfingers 7.12502
lthumb 8.55838 59.5513
rfemur -13.6435 -14.126 13.7951
rtibia 56.2354
rfoot -9.44732 -6.88731
rtoes -4.63123
lfemur -2.4495 -6.34703 -27.3716
ltibia 24.0604
lfoot -1.82152 -16.5552
ltoes -4.44373
39
root 11.2828 18.2257 -17.2348 -182.297 -11.2135 176.72
lowerback 10.9236 4.13724 -2.38073
upperback 2.97852 4.91949 -1.09386
thorax -3.10279 2.33561 -0.4579
lowerneck -15.7541 14.8572 -4.04586
upperneck 43.3465 19.2041 4.38953
head 17.6937 6.48416 5.77893
rclavicle -2.48232e-014 1.25731e-014
rhumerus -33.0079 -11.0764 -78.7854
rradius 40.8111
rwrist 1.1058
rhand -16.3143 7.78546
rfingers 7.12502
rthumb 9.89693 -21.9619
lclavicle -2.48232e-014 1.25731e-014
lhumerus -31.6606 7.67207 77.7234
lradius 22.3333
lwrist -12.1423
lhand -17.8004 29.6412
lfingers 7.12502
lthumb 8.46297 59.4517
rfemur -12.6234 -13.8763 14.0028
rtibia 56.0804
rfoot -9.33043 -6.47173
rtoes -3.44258
lfemur -2.83782 -6.33788 -27.0965
ltibia 24.1056
lfoot -1.66635 -16.8403
ltoes -4.03215
